<?xml version="1.0" standalone="no"?><svg xmlns="http://www.w3.org/2000/svg" viewBox="0 0 1440 276.3984069824219">
  <path fill="#845EC2" fill-opacity="0.8" d="M0,256L48,250.7C96,245,192,235,288,245.3C384,256,480,288,576,272C672,256,768,192,864,165.3C960,139,1056,149,1152,149.3C1248,149,1344,139,1392,133.3L1440,128L1440,0L1392,0C1344,0,1248,0,1152,0C1056,0,960,0,864,0C768,0,672,0,576,0C480,0,384,0,288,0C192,0,96,0,48,0L0,0Z"></path>
<path fill="#845EC2" fill-opacity="0.15" d="M0,224L48,192C96,160,192,96,288,74.7C384,53,480,75,576,117.3C672,160,768,224,864,229.3C960,235,1056,181,1152,144C1248,107,1344,85,1392,74.7L1440,64L1440,0L1392,0C1344,0,1248,0,1152,0C1056,0,960,0,864,0C768,0,672,0,576,0C480,0,384,0,288,0C192,0,96,0,48,0L0,0Z"></path>
</svg>