<?xml version="1.0" standalone="no"?>
<svg viewBox="14.633270263671875 31.099502563476562 165.73936462402344 133.99923706054688" xmlns="http://www.w3.org/2000/svg">
        <path fill="#845EC2" d="M40.6,-58.1C52.7,-55.4,62.5,-44.3,67.9,-31.3C73.3,-18.4,74.2,-3.8,71.7,10C69.2,23.8,63.4,36.8,54.8,48.4C46.2,59.9,34.8,69.9,23.7,67C12.5,64.1,1.5,48.3,-14.6,45.5C-30.6,42.7,-51.7,52.9,-65.9,49.7C-80,46.6,-87.2,30.1,-80.3,17.2C-73.4,4.2,-52.5,-5.1,-44.4,-19.3C-36.4,-33.5,-41.3,-52.7,-36,-58.5C-30.8,-64.3,-15.4,-56.7,-0.6,-55.9C14.3,-55,28.5,-60.8,40.6,-58.1Z" transform="translate(100 100)" />

<path fill="#845EC2" fill-opacity="0.5" d="M30.6,-46.2C36.4,-43.9,35.6,-29.9,36.3,-19.2C37,-8.6,39.2,-1.3,43.9,10.4C48.5,22.1,55.6,38.2,51.4,46.6C47.3,54.9,31.9,55.6,18.4,57.1C4.8,58.7,-6.9,61,-20.8,61.4C-34.8,61.7,-51,59.9,-54.5,50.3C-58.1,40.7,-49.1,23.2,-52.1,7.1C-55.1,-9.1,-70.2,-24,-70.8,-36.4C-71.5,-48.7,-57.7,-58.6,-43.5,-57C-29.3,-55.5,-14.7,-42.5,-1.1,-40.7C12.4,-39,24.8,-48.4,30.6,-46.2Z" transform="translate(100 100)" />

    <path fill="#845EC2" fill-opacity="0.1" d="M34.4,-48.2C47.2,-45.2,62.2,-40.2,62.2,-31.1C62.2,-22,47.1,-8.7,38.6,1C30.1,10.6,28,16.5,26,27.2C24,37.9,22.1,53.2,16.2,54.8C10.3,56.3,0.5,44.1,-7.4,36.6C-15.3,29,-21.2,26.3,-34.6,23.1C-47.9,20,-68.7,16.4,-78.5,6C-88.2,-4.5,-87,-21.8,-78.8,-34.5C-70.6,-47.1,-55.6,-55.1,-41.3,-57.5C-27,-59.9,-13.5,-56.6,-1.4,-54.5C10.7,-52.3,21.5,-51.3,34.4,-48.2Z" transform="translate(100 100)" />



</svg>
